<svg xmlns="http://www.w3.org/2000/svg" viewBox="0 0 24 24" fill="currentColor"><path d="M12 2C6.48 2 2 6.48 2 12s4.48 10 10 10 10-4.48 10-10S17.52 2 12 2zm-1 17.93c-3.95-.49-7-3.47-7-7.43 0-1.4 1.25-2.07 1.25-2.07l2.12.78c-.28.93-.41 1.9-.41 2.91 0 3.39 2.58 6.18 6 6.56V19.93zm6.18-1.57c-2.31 1.4-5.26 1.4-7.57 0l-.82-1.39c-.19-.32-.27-.7-.27-1.12 0-2.34 1.83-4.25 4.09-4.25s4.09 1.91 4.09 4.25c0 .42-.08.8-.27 1.12l-.82 1.39zM12 4.07V4c3.95.49 7 3.47 7 7.43 0 1.4-1.25 2.07-1.25 2.07l-2.12-.78c.28-.93.41-1.9.41-2.91 0-3.39-2.58-6.18-6-6.56z"/></svg>